<svg id="Layer_1" data-name="Layer 1" xmlns="http://www.w3.org/2000/svg" viewBox="0 0 192.36 335.42"><defs><style>.cls-1{fill:#e7007c;}.cls-2{fill:#0062b9;}.cls-3{fill:#c373ff;}.cls-4{fill:#5c9cff;}.cls-5,.cls-7,.cls-8{fill:#fff;}.cls-10,.cls-11,.cls-5,.cls-6,.cls-9{stroke:#000;}.cls-10,.cls-11,.cls-5,.cls-6,.cls-7,.cls-8,.cls-9{stroke-miterlimit:10;}.cls-10,.cls-11,.cls-5,.cls-9{stroke-width:3px;}.cls-7{stroke:#fff;}.cls-8{stroke:#f9f4f4;}.cls-9{fill:#595050;}.cls-10{fill:#d7ddda;}.cls-11{fill:none;}</style></defs><rect class="cls-1" x="81.96" y="173" width="239.87" height="60.31" transform="translate(-153.45 320.49) rotate(-89.56)"/><rect class="cls-2" x="116.73" y="250.42" width="239.87" height="60.31" transform="translate(-196.35 432.09) rotate(-89.56)"/><rect class="cls-3" x="162.45" y="187.99" width="239.87" height="60.31" transform="translate(-88.56 415.85) rotate(-89.56)"/><rect class="cls-4" x="191.99" y="268.1" width="239.87" height="60.31" transform="translate(-139.35 524.9) rotate(-89.56)"/><path d="M266.26,246.63a26.76,26.76,0,0,1-25.83.11c-1.69-.94-3.2,1.65-1.51,2.59a29.87,29.87,0,0,0,28.86-.11,1.5,1.5,0,0,0-1.52-2.59Z" transform="translate(-150.64 -83)"/><circle class="cls-5" cx="63.61" cy="125.17" r="28.93"/><circle class="cls-6" cx="55.24" cy="128.98" r="14.47"/><ellipse class="cls-7" cx="54.48" cy="136.59" rx="6.09" ry="3.81"/><line class="cls-8" x1="60.57" y1="136.59" x2="60.57" y2="122.13"/><circle class="cls-5" cx="141.3" cy="125.17" r="28.93"/><circle class="cls-6" cx="132.93" cy="128.98" r="14.47"/><ellipse class="cls-7" cx="132.17" cy="136.59" rx="6.09" ry="3.81"/><line class="cls-8" x1="138.26" y1="136.59" x2="138.26" y2="122.13"/><path class="cls-9" d="M176.08,289.86,191.87,323c1.21,2.53.89,5.2-.7,6l-8,3.83c-1.6.76-3.87-.67-5.08-3.2l-15.79-33.11" transform="translate(-150.64 -83)"/><rect class="cls-10" x="153.07" y="272.29" width="22.78" height="22.78" rx="10.5" transform="translate(-256.74 15.42) rotate(-25.5)"/><rect class="cls-11" x="152.3" y="280.3" width="22.78" height="3.56" transform="translate(-256.13 14.94) rotate(-25.5)"/></svg>