<svg id="Layer_1" data-name="Layer 1" xmlns="http://www.w3.org/2000/svg" viewBox="0 0 352.09 335.42"><defs><style>.cls-1,.cls-6{stroke:#000;stroke-miterlimit:10;}.cls-1{stroke-width:3px;}.cls-2{fill:#e7007c;}.cls-3{fill:#0062b9;}.cls-4{fill:#c373ff;}.cls-5{fill:#5c9cff;}.cls-6{fill:none;stroke-width:4px;}</style></defs><ellipse class="cls-1" cx="15.34" cy="72.93" rx="13.84" ry="13.03"/><line class="cls-1" x1="29.18" y1="72.93" x2="29.18" y2="23.43"/><rect class="cls-1" x="29.63" y="23.93" width="44" height="19"/><ellipse class="cls-1" cx="59.52" cy="73.2" rx="13.84" ry="13.03"/><line class="cls-1" x1="73.36" y1="73.2" x2="73.36" y2="23.7"/><ellipse class="cls-1" cx="292.3" cy="162.56" rx="13.84" ry="13.03"/><line class="cls-1" x1="306.14" y1="162.56" x2="306.14" y2="113.07"/><rect class="cls-1" x="306.59" y="113.57" width="44" height="19"/><ellipse class="cls-1" cx="336.48" cy="162.83" rx="13.84" ry="13.03"/><line class="cls-1" x1="350.32" y1="162.83" x2="350.32" y2="113.33"/><rect class="cls-2" x="90.44" y="169.57" width="239.87" height="60.31" transform="translate(-75.83 329) rotate(-89.56)"/><rect class="cls-3" x="125.22" y="246.99" width="239.87" height="60.31" transform="translate(-118.73 440.6) rotate(-89.56)"/><rect class="cls-4" x="170.93" y="184.56" width="239.87" height="60.31" transform="translate(-10.94 424.36) rotate(-89.56)"/><rect class="cls-5" x="200.48" y="264.67" width="239.87" height="60.31" transform="translate(-61.73 533.4) rotate(-89.56)"/><path d="M274.74,247.2a26.74,26.74,0,0,1-25.83.1c-1.69-.93-3.2,1.66-1.51,2.59a29.85,29.85,0,0,0,28.86-.1,1.5,1.5,0,0,0-1.52-2.59Z" transform="translate(-84.87 -79.57)"/><path class="cls-6" d="M246.14,216.58c2.46-13-10.33-23-21.6-23.27-11.5-.26-25.26,9.6-23.09,22.93" transform="translate(-84.87 -79.57)"/><path class="cls-6" d="M322.62,216.73c2.46-12.95-10.32-23-21.6-23.27-11.49-.26-25.26,9.6-23.09,22.93" transform="translate(-84.87 -79.57)"/></svg>