<svg id="Layer_1" data-name="Layer 1" xmlns="http://www.w3.org/2000/svg" viewBox="0 0 376.92 356.2"><defs><style>.cls-1,.cls-13{fill:#e7007c;}.cls-2{fill:#0062b9;}.cls-3{fill:#c373ff;}.cls-4{fill:#5c9cff;}.cls-5,.cls-7,.cls-8,.cls-9{fill:#fff;}.cls-10,.cls-12,.cls-5,.cls-6,.cls-9{stroke:#000;}.cls-10,.cls-11,.cls-12,.cls-5,.cls-6,.cls-7,.cls-8,.cls-9{stroke-miterlimit:10;}.cls-12,.cls-5{stroke-width:3px;}.cls-7{stroke:#fff;}.cls-8{stroke:#f9f4f4;}.cls-10{fill:none;}.cls-11{fill:#008b3a;stroke:#14b214;stroke-width:2px;}.cls-13{font-size:36.5px;font-family:MyriadPro-Regular, Myriad Pro;}</style></defs><rect class="cls-1" x="158.36" y="48.24" width="64.05" height="254.73" transform="translate(-41.88 -46.54) rotate(-0.44)"/><rect class="cls-2" x="121.44" y="130.45" width="64.05" height="254.73" transform="translate(-42.51 -46.82) rotate(-0.44)"/><rect class="cls-3" x="72.89" y="64.16" width="64.05" height="254.73" transform="translate(-42 -47.19) rotate(-0.44)"/><rect class="cls-4" x="41.51" y="149.23" width="64.05" height="254.73" transform="translate(-42.65 -47.43) rotate(-0.44)"/><path d="M89.23,165v8.51a1.5,1.5,0,0,0,3,0V165a1.5,1.5,0,0,0-3,0Z" transform="translate(-40.54 -48)"/><path d="M120.47,224.44a31.57,31.57,0,0,0,30.55.11c1.69-.94.18-3.53-1.51-2.59a28.49,28.49,0,0,1-27.52-.11,1.5,1.5,0,0,0-1.52,2.59Z" transform="translate(-40.54 -48)"/><circle class="cls-5" cx="54.81" cy="132.34" r="30.73"/><circle class="cls-6" cx="63.71" cy="136.38" r="15.36"/><ellipse class="cls-7" cx="64.52" cy="144.46" rx="6.47" ry="4.04"/><line class="cls-8" x1="70.98" y1="144.46" x2="70.98" y2="129.1"/><circle class="cls-5" cx="136.72" cy="132.93" r="30.73"/><circle class="cls-6" cx="145.61" cy="136.97" r="15.36"/><ellipse class="cls-7" cx="146.42" cy="145.06" rx="6.47" ry="4.04"/><line class="cls-8" x1="152.89" y1="145.06" x2="152.89" y2="129.69"/><rect class="cls-9" x="254.67" y="8.4" width="121.75" height="99.1" rx="11.67"/><line class="cls-10" x1="331.83" y1="39.54" x2="272.37" y2="39.54"/><line class="cls-10" x1="331.83" y1="53.7" x2="272.37" y2="53.7"/><line class="cls-10" x1="331.83" y1="66.44" x2="272.37" y2="66.44"/><line class="cls-10" x1="331.83" y1="80.6" x2="272.37" y2="80.6"/><line class="cls-11" x1="342.44" y1="35.3" x2="348.11" y2="42.37"/><line class="cls-11" x1="346.69" y1="42.37" x2="360.85" y2="23.97"/><ellipse class="cls-12" cx="279.19" cy="246.21" rx="13.84" ry="13.03"/><line class="cls-12" x1="293.03" y1="246.21" x2="293.03" y2="196.71"/><rect class="cls-12" x="293.48" y="197.21" width="44" height="19"/><ellipse class="cls-12" cx="323.37" cy="246.47" rx="13.84" ry="13.03"/><line class="cls-12" x1="337.21" y1="246.47" x2="337.21" y2="196.98"/><text class="cls-13" transform="translate(301.87 160.12) scale(1.15 1)">+</text></svg>
