<svg id="Layer_1" data-name="Layer 1" xmlns="http://www.w3.org/2000/svg" viewBox="0 0 299.05 311.83"><defs><style>.cls-1{fill:#e7007c;}.cls-2{fill:#0062b9;}.cls-3{fill:#c373ff;}.cls-4{fill:#5c9cff;}.cls-5,.cls-7,.cls-8,.cls-9{fill:#fff;}.cls-10,.cls-5,.cls-6,.cls-9{stroke:#000;}.cls-10,.cls-11,.cls-5,.cls-6,.cls-7,.cls-8,.cls-9{stroke-miterlimit:10;}.cls-5{stroke-width:3px;}.cls-7{stroke:#fff;}.cls-8{stroke:#f9f4f4;}.cls-10{fill:none;}.cls-11{fill:#008b3a;stroke:#14b214;stroke-width:2px;}</style></defs><rect class="cls-1" x="199.15" y="103.8" width="56.07" height="222.99" transform="translate(-97.64 -101.85) rotate(-0.44)"/><rect class="cls-2" x="166.82" y="175.77" width="56.07" height="222.99" transform="translate(-98.19 -102.09) rotate(-0.44)"/><rect class="cls-3" x="124.32" y="117.74" width="56.07" height="222.99" transform="translate(-97.75 -102.42) rotate(-0.44)"/><rect class="cls-4" x="96.85" y="192.21" width="56.07" height="222.99" transform="translate(-98.32 -102.63) rotate(-0.44)"/><path d="M138.43,206v7.45a1.5,1.5,0,0,0,3,0V206a1.5,1.5,0,1,0-3,0Z" transform="translate(-96 -103.59)"/><path d="M165.88,258.21a27.87,27.87,0,0,0,26.93.1c1.69-.93.18-3.53-1.51-2.59a24.78,24.78,0,0,1-23.91-.1,1.5,1.5,0,0,0-1.51,2.59Z" transform="translate(-96 -103.59)"/><circle class="cls-5" cx="47.99" cy="115.85" r="26.9"/><circle class="cls-6" cx="55.77" cy="119.39" r="13.45"/><ellipse class="cls-7" cx="56.48" cy="126.47" rx="5.66" ry="3.54"/><line class="cls-8" x1="62.14" y1="126.47" x2="62.14" y2="113.02"/><circle class="cls-5" cx="119.69" cy="116.37" r="26.9"/><circle class="cls-6" cx="127.47" cy="119.91" r="13.45"/><ellipse class="cls-7" cx="128.18" cy="126.99" rx="5.66" ry="3.54"/><line class="cls-8" x1="133.84" y1="126.99" x2="133.84" y2="113.54"/><rect class="cls-9" x="176.8" y="43.56" width="121.75" height="99.1" rx="11.67"/><line class="cls-10" x1="253.95" y1="74.7" x2="194.49" y2="74.7"/><line class="cls-10" x1="253.95" y1="88.86" x2="194.49" y2="88.86"/><line class="cls-10" x1="253.95" y1="101.6" x2="194.49" y2="101.6"/><line class="cls-10" x1="253.95" y1="115.76" x2="194.49" y2="115.76"/><line class="cls-11" x1="264.57" y1="70.46" x2="270.23" y2="77.53"/><line class="cls-11" x1="268.82" y1="77.53" x2="282.97" y2="59.13"/></svg>