<svg id="Layer_1" data-name="Layer 1" xmlns="http://www.w3.org/2000/svg" viewBox="0 0 267.34 340.33"><defs><style>.cls-1,.cls-10,.cls-11,.cls-12,.cls-6,.cls-7{stroke:#000;}.cls-1,.cls-10,.cls-11,.cls-12,.cls-6,.cls-7,.cls-8,.cls-9{stroke-miterlimit:10;}.cls-1,.cls-10,.cls-11,.cls-12,.cls-6{stroke-width:3px;}.cls-2{fill:#e7007c;}.cls-3{fill:#0062b9;}.cls-4{fill:#c373ff;}.cls-5{fill:#5c9cff;}.cls-6,.cls-8,.cls-9{fill:#fff;}.cls-8{stroke:#fff;}.cls-9{stroke:#f9f4f4;}.cls-10{fill:none;}.cls-11{fill:#595050;}.cls-12{fill:#d7ddda;}</style></defs><ellipse class="cls-1" cx="207.55" cy="53.38" rx="13.84" ry="13.03"/><line class="cls-1" x1="221.39" y1="53.38" x2="221.39" y2="3.89"/><rect class="cls-1" x="221.84" y="4.39" width="44" height="19"/><ellipse class="cls-1" cx="251.73" cy="53.65" rx="13.84" ry="13.03"/><line class="cls-1" x1="265.57" y1="53.65" x2="265.57" y2="4.15"/><rect class="cls-2" x="98.76" y="169.43" width="243.37" height="61.2" transform="translate(-149.93 340.83) rotate(-89.56)"/><rect class="cls-3" x="134.04" y="247.98" width="243.37" height="61.2" transform="translate(-193.46 454.06) rotate(-89.56)"/><rect class="cls-4" x="180.42" y="184.64" width="243.37" height="61.2" transform="translate(-84.09 437.58) rotate(-89.56)"/><rect class="cls-5" x="210.4" y="265.93" width="243.37" height="61.2" transform="translate(-135.63 548.22) rotate(-89.56)"/><path d="M287.55,246.6a66.22,66.22,0,0,1-6.42,13.09,20.09,20.09,0,0,1-6.69,6.78c-5.15,2.81-9.93-1-13-5.07A58.41,58.41,0,0,1,254,247.24c-.69-1.78-3.59-1-2.89.8a64.7,64.7,0,0,0,7.13,14.11c2,2.87,4.53,5.74,7.79,7.26,6.56,3,12.45-1.2,16.34-6.36,3.54-4.69,6-10.19,8-15.65.68-1.81-2.22-2.59-2.9-.8Z" transform="translate(-168.66 -78.11)"/><circle class="cls-6" cx="143.32" cy="127.79" r="29.36"/><circle class="cls-7" cx="134.82" cy="130.11" r="14.68"/><ellipse class="cls-8" cx="129.25" cy="133.96" rx="6.18" ry="3.86"/><line class="cls-9" x1="135.43" y1="133.96" x2="135.43" y2="119.28"/><line class="cls-10" x1="52.16" y1="104.61" x2="83.06" y2="132.43"/><line class="cls-10" x1="53.71" y1="149.42" x2="82.36" y2="130.74"/><path d="M285.39,166.07c5.26-10.94,17.16-17.82,29.2-17.77a29.38,29.38,0,0,1,10,1.78c1.81.66,2.6-2.24.79-2.89-12.32-4.48-26.8-.69-36.08,8.37a31.86,31.86,0,0,0-6.49,9c-.84,1.73,1.75,3.26,2.59,1.52Z" transform="translate(-168.66 -78.11)"/><line class="cls-10" x1="83.84" y1="169.39" x2="121.84" y2="168.39"/><path d="M259.61,254.43a10.78,10.78,0,0,0,2.57,6,1.51,1.51,0,0,0,2.51-1.46,23.56,23.56,0,0,0-3.88-7c-1.33-1.65-3.35-4.07-5.78-3.49a2.38,2.38,0,0,0-1.77,2.41c.07,1.35,1.23,2.23,2.14,3.07l7.29,6.64a1.51,1.51,0,0,0,2.36-1.82l-3.32-6a1.52,1.52,0,0,0-2.35-.31c-1.88,1.66-1.19,4.42.1,6.21a12.65,12.65,0,0,0,6,4.6c4.6,1.58,10.56-1.42,10.35-6.74a1.52,1.52,0,0,0-1.9-1.45c-1.67.62-3.75,1.46-5.55.91s-2.38-2.45-3.14-3.91c-1.46-2.83-5.15-5.62-8.08-2.91-.9.83-.26,2.71,1.06,2.56a6.17,6.17,0,0,1,5.16,1.73c1.37,1.38,1.61,3.36,2.5,5a4.77,4.77,0,0,0,4,2.69,3.39,3.39,0,0,0,3.61-2.42,1.53,1.53,0,0,0-2.21-1.7,3.38,3.38,0,0,1-3.9-1,3.47,3.47,0,0,1,.14-4.09l-2.36.3a7.83,7.83,0,0,0,6,2.16l-.4-3a5,5,0,0,1-6-3.35l-1.45,1.9a23.05,23.05,0,0,1,9.09,2.49l-.54-2a20.25,20.25,0,0,1-5.19,5.09l2.25,1.29a3.09,3.09,0,0,1,2.39-2.81l-1.69-2.2c-1.53,3.4,1.53,7.79,5.39,7,2.17-.45,3.55-2.57,5.19-3.89a20.91,20.91,0,0,1,6.38-3.46c1.53-.52,1.38-3-.4-2.95l-6.3.3a17,17,0,0,0-5.23.63c-2.79,1.06-4.11,4.75-1.41,6.71a1.52,1.52,0,0,0,2.06-.54,11.13,11.13,0,0,1,5.16-5.64c1.62-.84.41-3-1.16-2.74-2.27.36-4.54-.84-6.82-.18a4.06,4.06,0,0,0-2.79,5.1,4.84,4.84,0,0,0,4.82,3.49,6.58,6.58,0,0,0,5.51-4.63c.58-1.58-2-2.71-2.74-1.15-1.17,2.62-2.36,5.24-3.52,7.86-.73,1.65-1.24,3.71-.28,5.39a2.68,2.68,0,0,0,4.44.25,8.42,8.42,0,0,0,1.31-3l1.41-4.35c.44-1.36-1.56-2.65-2.5-1.46a10.1,10.1,0,0,0-2.29,7.13,1.52,1.52,0,0,0,2.8.75L284,254l-2.59-1.52a17.1,17.1,0,0,0-2.14,7h3a6.3,6.3,0,0,1,1.25-3.38l-2.74-1.15a8.27,8.27,0,0,1-6.45,6.14c-3.82.89-7.77-.62-11-2.6l-1.16,2.74a8.4,8.4,0,0,1,5.54,6l1.44-1.9c-3.08-.35-4.58-4.27-5.5-6.76L261.15,260a21.71,21.71,0,0,0,15.76,6l-.75-2.79a10,10,0,0,1-5.73,1.39c-1.67-.09-2.07,2.6-.4,2.94a5.26,5.26,0,0,0,6.33-5.15c0-2-2.76-1.86-3,0-.32,2.59-3.56,1.09-4.61,2.9-1.26,2.17,2.33,4.11,3.33,1.56.7-1.8-2.2-2.58-2.89-.8l-.06.16,1-1.05,1.12.33.16,1.15c-.56.45-.6.64-.13.56l.33,0a5.25,5.25,0,0,0,1.05-.19,5.34,5.34,0,0,0,1.82-1,5.28,5.28,0,0,0,1.84-3.59h-3a2.22,2.22,0,0,1-2.53,2.26l-.4,2.95a12.88,12.88,0,0,0,7.24-1.8,1.51,1.51,0,0,0-.76-2.8,18.7,18.7,0,0,1-13.64-5.1c-1-1-3,0-2.5,1.46,1.48,4,3.67,8.42,8.39,9a1.51,1.51,0,0,0,1.45-1.9,11.47,11.47,0,0,0-7.63-8.05c-1.66-.53-2.58,1.87-1.16,2.74,4,2.47,8.94,4.08,13.63,2.82a11.18,11.18,0,0,0,8.21-8.16,1.51,1.51,0,0,0-2.74-1.15,9.14,9.14,0,0,0-1.66,4.89c-.11,1.94,2.84,1.9,3,0A13.44,13.44,0,0,1,284,254a1.5,1.5,0,0,0-2.59-1.52l-5.3,8.36,2.79.76a7,7,0,0,1,1.41-5l-2.51-1.46c-.57,1.76-1.13,3.52-1.71,5.27a5,5,0,0,0-.34.87c-.08.05-.1.09-.07.14l.46.15c0-.07-.13-.9-.11-1.06.11-1.36,1-2.73,1.54-3.94l2.35-5.25-2.74-1.15c-.44,1.2-1.66,2.62-3.09,2.42-.84-.11-1.87-1.21-1.48-2.12s2.21-.67,3-.57a15.24,15.24,0,0,0,4.52.17L279,247.31a13.67,13.67,0,0,0-6.24,6.71l2.06-.53c-.45-.33.55-1.15.72-1.23a7.34,7.34,0,0,1,2.94-.45l7.76-.37-.4-2.95a24.36,24.36,0,0,0-8.95,5.33c-.85.81-1.88,2.41-3.23,1.89-.84-.33-1.82-1.51-1.39-2.46a1.52,1.52,0,0,0-1.7-2.2,6.15,6.15,0,0,0-4.59,5.7,1.52,1.52,0,0,0,2.26,1.3,23.74,23.74,0,0,0,6.27-6.17,1.51,1.51,0,0,0-.53-2,26.76,26.76,0,0,0-10.61-2.9,1.51,1.51,0,0,0-1.44,1.9,8.08,8.08,0,0,0,9.66,5.44c1.59-.41,1.32-3.08-.4-2.94a4.84,4.84,0,0,1-3.88-1.28,1.53,1.53,0,0,0-2.36.3,6.25,6.25,0,0,0,7.87,9.25l-2.21-1.7c-.06.25-.47.28-.86.19a1.83,1.83,0,0,1-1.17-1c-.85-1.43-1.07-3.14-2-4.53a9,9,0,0,0-8.31-3.87l1.06,2.56c1.07-1,2.67,1,3.11,1.82a19.37,19.37,0,0,0,2.54,4.18c2.66,2.75,6.62,1.86,9.8.69l-1.9-1.45c.13,3.21-3.47,4.77-6.19,4a9,9,0,0,1-3.81-2.46c-.64-.67-2.35-2.55-1.33-3.44l-2.36-.31,3.32,6,2.35-1.82-4.62-4.22L257.7,252a7.58,7.58,0,0,0-1.07-1c-.31-.47-.63-.35-.95.39a.8.8,0,0,1,.26,0c.19.19.61.36.83.56s.58.56.86.85a19.17,19.17,0,0,1,1.67,2,20.08,20.08,0,0,1,2.5,4.85l2.5-1.46a7.2,7.2,0,0,1-1.69-3.84c-.21-1.9-3.21-1.92-3,0Z" transform="translate(-168.66 -78.11)"/><path d="M268.38,257a7.05,7.05,0,0,1-5.33-4.17L260.31,254a12.67,12.67,0,0,0,12.57,7.14,1.53,1.53,0,0,0,1.45-1.9c-.65-2.06-2.49-3-4.49-3.5-1.15-.26-4.4-.39-4.41-2.08l-1.9,1.45a51.45,51.45,0,0,0,21.6.93c1.9-.32,1.09-3.22-.8-2.9a47.53,47.53,0,0,1-20-.93,1.53,1.53,0,0,0-1.9,1.45c0,2.34,1.89,3.74,3.94,4.4,1.36.44,4.54.31,5.07,2l1.44-1.9a9.81,9.81,0,0,1-10-5.65c-.71-1.53-3.39-.43-2.75,1.15a10.09,10.09,0,0,0,7.43,6.27c1.89.35,2.7-2.54.8-2.9Z" transform="translate(-168.66 -78.11)"/><path d="M284.56,247.66h-6.42a1.5,1.5,0,0,0,0,3l6.95,0-1.45-1.1a4.77,4.77,0,0,1-1.77,4.66l1.82-.24c.2.11-.15.68.12.3a1.52,1.52,0,0,0-.53-2.06,1.55,1.55,0,0,0-2.06.54A58.09,58.09,0,0,1,271,263.49a1.5,1.5,0,0,0,0,2.12,1.54,1.54,0,0,0,2.12,0,61.11,61.11,0,0,0,10.68-11.29l-2.59-1.52a2.68,2.68,0,0,0,1,3.81,1.56,1.56,0,0,0,1.81-.23,7.74,7.74,0,0,0,2.55-7.58,1.53,1.53,0,0,0-1.45-1.1l-6.95,0v3h6.42a1.5,1.5,0,0,0,0-3Z" transform="translate(-168.66 -78.11)"/><path d="M283.13,249.83c-1,3.32-2,6.75-4.07,9.58-1.79,2.45-4.8,4.51-8,4.24-5.6-.48-7.7-7.42-8.93-11.92l-1.45,1.9,16.9-1.06c1.58-.1,2.17-2.65.4-2.95a36.91,36.91,0,0,0-12,0c-1.7.28-1.24,2.93.4,2.95a121,121,0,0,0,12.91-.57c1.91-.19,1.93-3.19,0-3a121,121,0,0,1-12.91.57l.4,2.95a31.87,31.87,0,0,1,10.45,0l.4-3-16.9,1.06a1.52,1.52,0,0,0-1.45,1.9c1.64,6,4.61,13.63,11.83,14.12,3.72.25,7.39-1.85,9.71-4.64,2.73-3.27,4-7.38,5.21-11.38.55-1.86-2.34-2.65-2.89-.8Z" transform="translate(-168.66 -78.11)"/><path class="cls-11" d="M194.1,274.66l15.79,33.11c1.2,2.53.89,5.2-.7,6l-8.05,3.83c-1.59.76-3.86-.67-5.07-3.2l-15.79-33.11" transform="translate(-168.66 -78.11)"/><rect class="cls-12" x="171.08" y="257.09" width="22.78" height="22.78" rx="10.5" transform="translate(-266.46 26.58) rotate(-25.5)"/><rect class="cls-10" x="170.32" y="265.1" width="22.78" height="3.56" transform="translate(-265.84 26.1) rotate(-25.5)"/></svg>