<svg id="Layer_1" data-name="Layer 1" xmlns="http://www.w3.org/2000/svg" viewBox="0 0 172.18 335.42"><defs><style>.cls-1{fill:#e7007c;}.cls-2{fill:#0062b9;}.cls-3{fill:#c373ff;}.cls-4{fill:#5c9cff;}.cls-5,.cls-7,.cls-8{fill:#fff;}.cls-5,.cls-6{stroke:#000;}.cls-5,.cls-6,.cls-7,.cls-8{stroke-miterlimit:10;}.cls-5{stroke-width:3px;}.cls-7{stroke:#fff;}.cls-8{stroke:#f9f4f4;}</style></defs><rect class="cls-1" x="81.96" y="173" width="239.87" height="60.31" transform="translate(-173.62 320.49) rotate(-89.56)"/><rect class="cls-2" x="116.73" y="250.42" width="239.87" height="60.31" transform="translate(-216.53 432.09) rotate(-89.56)"/><rect class="cls-3" x="162.45" y="187.99" width="239.87" height="60.31" transform="translate(-108.74 415.85) rotate(-89.56)"/><rect class="cls-4" x="191.99" y="268.1" width="239.87" height="60.31" transform="translate(-159.53 524.9) rotate(-89.56)"/><path d="M266.26,246.63a26.76,26.76,0,0,1-25.83.11c-1.69-.94-3.2,1.65-1.51,2.59a29.87,29.87,0,0,0,28.86-.11,1.5,1.5,0,0,0-1.52-2.59Z" transform="translate(-170.82 -83)"/><circle class="cls-5" cx="43.44" cy="125.17" r="28.93"/><circle class="cls-6" cx="35.06" cy="128.98" r="14.47"/><ellipse class="cls-7" cx="34.3" cy="136.59" rx="6.09" ry="3.81"/><line class="cls-8" x1="40.39" y1="136.59" x2="40.39" y2="122.13"/><circle class="cls-5" cx="121.13" cy="125.17" r="28.93"/><circle class="cls-6" cx="112.75" cy="128.98" r="14.47"/><ellipse class="cls-7" cx="111.99" cy="136.59" rx="6.09" ry="3.81"/><line class="cls-8" x1="118.08" y1="136.59" x2="118.08" y2="122.13"/><path d="M265.42,248.94c1.57,5.66-1.48,11.87-6.46,14.76-5.43,3.15-11.9,1.08-15.61-3.7a12.53,12.53,0,0,1-2.68-9.59c.31-1.89-2.58-2.7-2.89-.8-1.27,7.57,3.54,15,10.61,17.74s14.72-1.07,18.31-7.44a15.54,15.54,0,0,0,1.61-11.77,1.5,1.5,0,0,0-2.89.8Z" transform="translate(-170.82 -83)"/><path d="M244.27,255.36c.08,0,.53.24.21.07l.32.17a3.28,3.28,0,0,1,.31.2c-.3-.2.1.1.16.15l.25.26c.09.1.21.29.07.08a6.87,6.87,0,0,1,.44.74c.18.34-.08-.28,0,.09,0,.14.09.27.12.41s.06.28.1.42c-.09-.34,0,0,0,.08a3.08,3.08,0,0,1,0,.43c0,.09-.07.51,0,.14,0,.12,0,.24-.07.35s-.2.56-.05.22l2.35-.3a26.54,26.54,0,0,1-6.66-9.21,1.5,1.5,0,0,0-1.7-.69,1.54,1.54,0,0,0-1.1,1.44,11.57,11.57,0,0,0,5.62,9.92,1.5,1.5,0,1,0,1.51-2.59l-.54-.34-.23-.17s-.24-.18-.13-.09l-.18-.15-.21-.19-.41-.39c-.15-.16-.29-.31-.43-.48l-.19-.21c-.15-.19.12.16,0,0a9.36,9.36,0,0,1-.7-1.07l-.27-.5-.12-.26c0-.08-.12-.29,0-.09a12,12,0,0,1-.39-1.15c0-.18-.09-.37-.13-.55l-.06-.35c0-.12,0-.18,0,0a10.86,10.86,0,0,1-.07-1.28l-2.79.76A29.26,29.26,0,0,0,246.4,261a1.52,1.52,0,0,0,2.36-.31,6.06,6.06,0,0,0-.09-5.05,5.9,5.9,0,0,0-3.6-3.16,1.52,1.52,0,0,0-1.85,1.05,1.54,1.54,0,0,0,1.05,1.84Z" transform="translate(-170.82 -83)"/><path d="M248.84,253.42l-4-2.77-1.16,2.74,14.56,3.41v-2.9a20.77,20.77,0,0,1-10.6,1.33,1.52,1.52,0,0,0-1.7,2.2c.66,1.54,2.15,2.08,3.07,3.35.25.32.18.66.33,1-.08.25-.07.27,0,.07a.17.17,0,0,1,.22-.05c0-.09-.21-.22-.26-.32-.66-1.26-.82-2.65-1.75-3.79a3,3,0,0,0-4-.94,1.51,1.51,0,0,0-.54,2A11.31,11.31,0,0,0,262.9,257c.53-1.23-.66-3-2-2.05a20.46,20.46,0,0,1-6.94,3,17.76,17.76,0,0,1-3.55.43,3.15,3.15,0,0,1-1.39-.21,4.36,4.36,0,0,0-.42-.23c-.41-.12.15-.26-.11.25l-1.29.74a2.17,2.17,0,0,1,2.09,3,1.53,1.53,0,0,0,1,1.85,15.59,15.59,0,0,0,10.88-.82,1.51,1.51,0,0,0,.54-2.05,1.55,1.55,0,0,0-2.06-.54,14.18,14.18,0,0,1-14.59-2.21l-1.82,2.36a20.81,20.81,0,0,0,6.8,3.37,10.63,10.63,0,0,0,7.09-.93c4.69-2.3,7.13-7.16,9.23-11.68a1.52,1.52,0,0,0-1.7-2.2l-11.06,2.65a1.51,1.51,0,0,0,.4,2.95l7.86-.15-1.3-2.26-2.73,4.31,2.59,1.51,2.72-4.81-2.79-.75c-.21,1.88.23,3.74.27,5.63,0,1.53-.43,2.9-2.11,3.17a22.56,22.56,0,0,1-4.64-.21,7.1,7.1,0,0,0-4.91,1.37c-.82.64-.39,1.88.31,2.36,3.14,2.15,7,.36,9.5-1.88a28.07,28.07,0,0,0,6.69-9.85l-2.8-.76.15,6.81h3l-.4-3.11a1.51,1.51,0,0,0-3-.4c-1.24,3.87-4.88,7.32-9.15,7.09-3.68-.2-7.1-4.1-6.08-7.8a1.5,1.5,0,0,0-2.9-.79c-1.49,5.45,3,10.9,8.41,11.53,5.82.69,10.93-4,12.61-9.23l-2.94-.4.4,3.11a1.56,1.56,0,0,0,1.5,1.5,1.51,1.51,0,0,0,1.5-1.5l-.15-6.81c0-1.36-2.17-2.2-2.79-.75a29.09,29.09,0,0,1-5.3,8.35c-1.6,1.71-4.46,3.89-6.79,2.3l.31,2.35c1.21-.93,3.3-.46,4.68-.33a8.64,8.64,0,0,0,5.26-.7c4.07-2.41,1.91-7.34,2.32-11.05.16-1.53-2.11-2-2.8-.76l-2.72,4.81a1.5,1.5,0,0,0,2.59,1.51l2.73-4.3a1.51,1.51,0,0,0-1.29-2.26l-7.86.15.4,2.94,11.06-2.65-1.69-2.2c-1.8,3.85-3.72,8.11-7.58,10.3a7.6,7.6,0,0,1-5.53.89,19,19,0,0,1-5.9-3c-1.41-.93-3.12,1.24-1.82,2.35a17.32,17.32,0,0,0,18.23,2.68l-1.52-2.59a12.38,12.38,0,0,1-8.56.51l1,1.85a5.21,5.21,0,0,0-2.29-6.15c-1-.59-2.84-1.16-3.76-.23a2.56,2.56,0,0,0,.1,3.43c1.89,2.13,5.14,1.66,7.63,1.22a22.66,22.66,0,0,0,8.54-3.45l-2.05-2a8.71,8.71,0,0,1-6.67,5.3,8.53,8.53,0,0,1-7.95-3.49l-.54,2.05-.17,0c.06.12.27.25.37.36a3.11,3.11,0,0,1,.49,1.06,9.3,9.3,0,0,0,.91,2.27c.95,1.52,2.85,2.41,4.45,1.22,1.38-1,1.37-3,.7-4.43-.75-1.61-2.65-2.24-3.35-3.85l-1.69,2.2a23.83,23.83,0,0,0,12.2-1.32c1.26-.5,1.57-2.53,0-2.9l-14.56-3.41a1.51,1.51,0,0,0-1.15,2.75l4,2.77c1.59,1.1,3.09-1.5,1.52-2.59Z" transform="translate(-170.82 -83)"/></svg>
